<svg id="Layer_1" data-name="Layer 1" xmlns="http://www.w3.org/2000/svg" viewBox="0 0 174 71.33"><defs><style>.cls-1{fill:#fff;}.cls-2{fill:#006595;}</style></defs><title>Artboard 1</title><path class="cls-1" d="M60.44,67.81l-49.72.41S.28,67.68.69,53.94.81,11.16.81,11.16s3.32-8,9.78-8l52.91.06"/><path class="cls-2" d="M59.7,68.39H163.59a9.7,9.7,0,0,0,10-9.43V12.33a9.7,9.7,0,0,0-10-9.43H59.7"/><path class="cls-2" d="M154.5,68.41H10.79A10.06,10.06,0,0,1,.49,58.63V12.7a10.06,10.06,0,0,1,10.3-9.78H154.5v1H10.79a9.08,9.08,0,0,0-9.32,8.8V58.63a9.08,9.08,0,0,0,9.32,8.8H154.5Z"/><polygon class="cls-2" points="41.27 42.6 19.98 42.6 19.2 45.14 24.88 45.14 25.96 48.66 35.29 48.66 36.37 45.14 42.05 45.14 41.27 42.6"/><path class="cls-2" d="M23.45,28.3a5,5,0,0,0,1.12,7l5.1,3.7a1.26,1.26,0,0,1,.28,1.76l.77.56,2.69-3.72a5,5,0,0,0,1-2.94,5.06,5.06,0,0,0-.07-.8,5,5,0,0,0-2-3.28l-5.1-3.71a1.26,1.26,0,0,1-.51-.82,1.77,1.77,0,0,1,0-.2,1.23,1.23,0,0,1,.24-.73h0l-.77-.56L23.45,28.3"/><path class="cls-2" d="M26.52,13.41a7.25,7.25,0,0,0-1.39,4.27,7.5,7.5,0,0,0,.09,1.16,7.26,7.26,0,0,0,2.93,4.76l6.41,4.64a3.89,3.89,0,0,1,1.57,2.55,4,4,0,0,1,0,.62,3.88,3.88,0,0,1-.75,2.29h0l.61.45,5-7A7.3,7.3,0,0,0,39.46,17l-7.74-5.62a2.26,2.26,0,0,1-.5-3.15l-.61-.44Z"/><path class="cls-2" d="M13.44,50.78h5.83a4.55,4.55,0,0,1,3.29,1.11A2.89,2.89,0,0,1,23.42,54v0a2.93,2.93,0,0,1-1.65,2.71,3.07,3.07,0,0,1,2.35,3.09v0c0,2.3-1.87,3.45-4.7,3.45h-6Zm5.24,5.08c1.22,0,2-.4,2-1.33v0c0-.83-.65-1.29-1.81-1.29H16.13v2.66Zm.74,5.06c1.22,0,2-.43,2-1.36v0c0-.84-.63-1.36-2-1.36h-3.2v2.76Z"/><path class="cls-2" d="M25.32,50.78h5.83a4.54,4.54,0,0,1,3.29,1.11A2.89,2.89,0,0,1,35.3,54v0a2.92,2.92,0,0,1-1.65,2.71A3.07,3.07,0,0,1,36,59.87v0c0,2.3-1.87,3.45-4.7,3.45h-6Zm5.24,5.08c1.22,0,2-.4,2-1.33v0c0-.83-.65-1.29-1.81-1.29H28v2.66Zm.74,5.06c1.22,0,2-.43,2-1.36v0c0-.84-.63-1.36-2-1.36H28v2.76Z"/><path class="cls-2" d="M37.21,50.78H43a4.56,4.56,0,0,1,3.29,1.11A2.89,2.89,0,0,1,47.19,54v0a2.92,2.92,0,0,1-1.65,2.71,3.07,3.07,0,0,1,2.35,3.09v0c0,2.3-1.87,3.45-4.7,3.45h-6Zm5.24,5.08c1.22,0,2-.4,2-1.33v0c0-.83-.65-1.29-1.81-1.29H39.9v2.66Zm.74,5.06c1.22,0,2-.43,2-1.36v0c0-.84-.63-1.36-2-1.36H39.9v2.76Z"/><path class="cls-2" d="M49.48,63.19a1.43,1.43,0,0,1-.57-.11,1.44,1.44,0,0,1-.76-.77,1.4,1.4,0,0,1-.11-.56h0a1.41,1.41,0,0,1,.11-.56,1.45,1.45,0,0,1,.77-.77,1.46,1.46,0,0,1,1.14,0,1.43,1.43,0,0,1,.46.31,1.48,1.48,0,0,1,.31.46,1.41,1.41,0,0,1,.11.56h0a1.41,1.41,0,0,1-.11.56,1.46,1.46,0,0,1-.77.77A1.41,1.41,0,0,1,49.48,63.19Zm0-.16a1.26,1.26,0,0,0,.51-.1,1.3,1.3,0,0,0,.41-.28,1.26,1.26,0,0,0,.27-.41,1.29,1.29,0,0,0,.1-.5h0a1.27,1.27,0,0,0-.1-.5,1.28,1.28,0,0,0-.27-.41,1.23,1.23,0,0,0-.4-.27,1.33,1.33,0,0,0-1,0,1.29,1.29,0,0,0-.41.28,1.27,1.27,0,0,0-.27.41,1.29,1.29,0,0,0-.1.5h0a1.3,1.3,0,0,0,.1.5,1.25,1.25,0,0,0,.27.41,1.26,1.26,0,0,0,.41.27A1.27,1.27,0,0,0,49.48,63Zm-.59-2.1h.68a.64.64,0,0,1,.48.17.45.45,0,0,1,.13.34h0a.47.47,0,0,1-.09.3.55.55,0,0,1-.24.17l.38.55h-.4L49.5,62h-.27v.5h-.34Zm.68.75a.28.28,0,0,0,.2-.06.21.21,0,0,0,.07-.16h0a.2.2,0,0,0-.07-.17.31.31,0,0,0-.2-.06h-.33v.45Z"/><path class="cls-1" d="M73.16,22.83h2.22l4.68,11H77.54l-1-2.45H71.92l-1,2.45H68.48Zm2.53,6.43-1.45-3.54-1.45,3.54Z"/><path class="cls-1" d="M86,34a5.66,5.66,0,0,1-2.23-.44,5.39,5.39,0,0,1-2.95-3,5.75,5.75,0,0,1-.42-2.2v0a5.7,5.7,0,0,1,.42-2.19A5.64,5.64,0,0,1,82,24.39a5.42,5.42,0,0,1,1.79-1.22,5.84,5.84,0,0,1,2.31-.44,7.23,7.23,0,0,1,1.4.13,5.85,5.85,0,0,1,1.15.34,5,5,0,0,1,1,.53,6.46,6.46,0,0,1,.81.69l-1.53,1.76a5.75,5.75,0,0,0-1.3-.9A3.32,3.32,0,0,0,86,24.94a3,3,0,0,0-2.28,1A3.41,3.41,0,0,0,83.11,27a3.68,3.68,0,0,0-.23,1.32v0a3.74,3.74,0,0,0,.23,1.33,3.47,3.47,0,0,0,.65,1.09,3,3,0,0,0,2.29,1,3.34,3.34,0,0,0,1.58-.34,6.15,6.15,0,0,0,1.29-.94l1.53,1.54a7.86,7.86,0,0,1-.87.81,5.22,5.22,0,0,1-1,.62,5.16,5.16,0,0,1-1.18.39A7.11,7.11,0,0,1,86,34Z"/><path class="cls-1" d="M96.59,34a5.66,5.66,0,0,1-2.23-.44,5.38,5.38,0,0,1-2.95-3A5.76,5.76,0,0,1,91,28.4v0a5.71,5.71,0,0,1,.42-2.19,5.64,5.64,0,0,1,1.17-1.79,5.43,5.43,0,0,1,1.79-1.22,5.84,5.84,0,0,1,2.31-.44,7.24,7.24,0,0,1,1.4.13,5.85,5.85,0,0,1,1.15.34,5,5,0,0,1,1,.53,6.46,6.46,0,0,1,.81.69l-1.53,1.76a5.75,5.75,0,0,0-1.3-.9,3.32,3.32,0,0,0-1.49-.33,3,3,0,0,0-1.27.27,3,3,0,0,0-1,.73A3.42,3.42,0,0,0,93.74,27a3.68,3.68,0,0,0-.23,1.32v0a3.74,3.74,0,0,0,.23,1.33,3.47,3.47,0,0,0,.65,1.09,3,3,0,0,0,2.29,1,3.34,3.34,0,0,0,1.58-.34,6.15,6.15,0,0,0,1.29-.94l1.53,1.54a7.86,7.86,0,0,1-.87.81,5.22,5.22,0,0,1-1,.62,5.16,5.16,0,0,1-1.18.39A7.11,7.11,0,0,1,96.59,34Z"/><path class="cls-1" d="M102.1,22.91h5A4.31,4.31,0,0,1,110.27,24a3.37,3.37,0,0,1,.94,2.5v0a3.42,3.42,0,0,1-.65,2.16,3.75,3.75,0,0,1-1.69,1.22l2.67,3.9h-2.81l-2.34-3.5H104.5v3.5h-2.4Zm4.84,5.3a2,2,0,0,0,1.37-.42,1.43,1.43,0,0,0,.48-1.12v0a1.39,1.39,0,0,0-.5-1.17,2.21,2.21,0,0,0-1.39-.39H104.5v3.14Z"/><path class="cls-1" d="M112.49,22.91h8.22V25h-5.85v2.22H120V29.4h-5.15v2.29h5.93v2.14h-8.3Z"/><path class="cls-1" d="M122.05,22.91h4.26a6.45,6.45,0,0,1,2.35.41,5.54,5.54,0,0,1,1.84,1.15,5.12,5.12,0,0,1,1.19,1.72,5.42,5.42,0,0,1,.42,2.15v0a5.47,5.47,0,0,1-.42,2.15,5.1,5.1,0,0,1-1.19,1.73,5.64,5.64,0,0,1-1.84,1.15,6.35,6.35,0,0,1-2.35.42h-4.26Zm4.26,8.75a3.71,3.71,0,0,0,1.34-.23,2.89,2.89,0,0,0,1-.67,3.14,3.14,0,0,0,.67-1,3.48,3.48,0,0,0,.24-1.33v0a3.56,3.56,0,0,0-.24-1.33,3.11,3.11,0,0,0-.67-1,3,3,0,0,0-1-.68,3.6,3.6,0,0,0-1.34-.24h-1.86v6.58Z"/><path class="cls-1" d="M133.48,22.91h2.4V33.83h-2.4Z"/><path class="cls-1" d="M140.26,25.13h-3.32V22.91h9v2.22h-3.32v8.71h-2.4Z"/><path class="cls-1" d="M146.94,22.91h8.22V25h-5.85v2.22h5.15V29.4h-5.15v2.29h5.93v2.14h-8.3Z"/><path class="cls-1" d="M156.5,22.91h4.26a6.45,6.45,0,0,1,2.35.41A5.54,5.54,0,0,1,165,24.47a5.12,5.12,0,0,1,1.19,1.72,5.42,5.42,0,0,1,.42,2.15v0a5.47,5.47,0,0,1-.42,2.15A5.1,5.1,0,0,1,165,32.26a5.64,5.64,0,0,1-1.84,1.15,6.35,6.35,0,0,1-2.35.42H156.5Zm4.26,8.75a3.71,3.71,0,0,0,1.34-.23,2.89,2.89,0,0,0,1-.67,3.14,3.14,0,0,0,.67-1,3.48,3.48,0,0,0,.24-1.33v0a3.56,3.56,0,0,0-.24-1.33,3.11,3.11,0,0,0-.67-1,3,3,0,0,0-1-.68,3.6,3.6,0,0,0-1.34-.24h-1.86v6.58Z"/><path class="cls-1" d="M69.41,40.59h5.06a3.86,3.86,0,0,1,2.85,1,2.52,2.52,0,0,1,.75,1.86v0a2.68,2.68,0,0,1-.12.83,2.6,2.6,0,0,1-.31.65,2.49,2.49,0,0,1-.45.51,3,3,0,0,1-.55.37,3.68,3.68,0,0,1,1.49,1,2.5,2.5,0,0,1,.54,1.71v0a2.83,2.83,0,0,1-.29,1.31,2.54,2.54,0,0,1-.83.94,3.86,3.86,0,0,1-1.29.56,7,7,0,0,1-1.67.19H69.41ZM74,45a2.51,2.51,0,0,0,1.26-.27.94.94,0,0,0,.47-.88v0a1,1,0,0,0-.41-.83,2,2,0,0,0-1.17-.29H71.75V45Zm.64,4.4a2.3,2.3,0,0,0,1.25-.29,1,1,0,0,0,.45-.9v0a1,1,0,0,0-.42-.87A2.27,2.27,0,0,0,74.53,47H71.75v2.4Z"/><path class="cls-1" d="M84.34,51.69a4.33,4.33,0,0,1-4.73-4.85V40.59H82v6.18a2.89,2.89,0,0,0,.62,2,2.24,2.24,0,0,0,1.73.68,2.28,2.28,0,0,0,1.73-.66,2.75,2.75,0,0,0,.62-2V40.59h2.4v6.16a6.31,6.31,0,0,1-.34,2.17,4.08,4.08,0,0,1-1,1.54,3.94,3.94,0,0,1-1.51.92A6.09,6.09,0,0,1,84.34,51.69Z"/><path class="cls-1" d="M94.59,51.67a7.23,7.23,0,0,1-2.45-.43A6.47,6.47,0,0,1,90,49.92l1.42-1.7a7.13,7.13,0,0,0,1.54,1,4.09,4.09,0,0,0,1.72.36,2.1,2.1,0,0,0,1.16-.27.86.86,0,0,0,.41-.76v0a.94.94,0,0,0-.09-.41.87.87,0,0,0-.33-.33,3.44,3.44,0,0,0-.67-.31q-.43-.16-1.12-.33a13.5,13.5,0,0,1-1.5-.45A4.23,4.23,0,0,1,91.37,46a2.48,2.48,0,0,1-.73-.91,3.17,3.17,0,0,1-.26-1.36v0a3.17,3.17,0,0,1,.28-1.35,3.08,3.08,0,0,1,.78-1,3.52,3.52,0,0,1,1.2-.67,4.83,4.83,0,0,1,1.54-.23,6.53,6.53,0,0,1,2.21.36,6.4,6.4,0,0,1,1.85,1L97,43.64a8,8,0,0,0-1.44-.79,3.67,3.67,0,0,0-1.4-.29,1.69,1.69,0,0,0-1.05.27.83.83,0,0,0-.35.68v0a1,1,0,0,0,.1.46.92.92,0,0,0,.37.35,3.43,3.43,0,0,0,.73.3l1.17.33a11.2,11.2,0,0,1,1.48.49,4.11,4.11,0,0,1,1.09.66,2.49,2.49,0,0,1,.67.9,3,3,0,0,1,.23,1.23v0a3.38,3.38,0,0,1-.29,1.44,3,3,0,0,1-.82,1.06,3.7,3.7,0,0,1-1.26.66A5.48,5.48,0,0,1,94.59,51.67Z"/><path class="cls-1" d="M99.9,40.59h2.4V51.52H99.9Z"/><path class="cls-1" d="M104.14,40.59h2.22l5.12,6.72V40.59h2.37V51.52h-2l-5.29-6.94v6.94h-2.37Z"/><path class="cls-1" d="M115.58,40.59h8.22v2.14H118v2.22h5.15v2.14H118v2.29h5.93v2.14h-8.3Z"/><path class="cls-1" d="M129,51.67a7.23,7.23,0,0,1-2.45-.43,6.47,6.47,0,0,1-2.18-1.32l1.42-1.7a7.13,7.13,0,0,0,1.54,1,4.09,4.09,0,0,0,1.72.36,2.1,2.1,0,0,0,1.16-.27.86.86,0,0,0,.41-.76v0a.94.94,0,0,0-.09-.41.87.87,0,0,0-.33-.33,3.44,3.44,0,0,0-.67-.31q-.43-.16-1.12-.33a13.5,13.5,0,0,1-1.5-.45,4.23,4.23,0,0,1-1.14-.62,2.48,2.48,0,0,1-.73-.91,3.17,3.17,0,0,1-.26-1.36v0a3.17,3.17,0,0,1,.28-1.35,3.08,3.08,0,0,1,.78-1,3.52,3.52,0,0,1,1.2-.67,4.83,4.83,0,0,1,1.54-.23,6.53,6.53,0,0,1,2.21.36,6.4,6.4,0,0,1,1.85,1l-1.25,1.81a8,8,0,0,0-1.44-.79,3.67,3.67,0,0,0-1.4-.29,1.69,1.69,0,0,0-1.05.27.83.83,0,0,0-.35.68v0a1,1,0,0,0,.1.46.92.92,0,0,0,.37.35,3.43,3.43,0,0,0,.73.3l1.17.33a11.2,11.2,0,0,1,1.48.49,4.11,4.11,0,0,1,1.09.66,2.49,2.49,0,0,1,.67.9,3,3,0,0,1,.23,1.23v0a3.38,3.38,0,0,1-.29,1.44,3,3,0,0,1-.82,1.06,3.7,3.7,0,0,1-1.26.66A5.48,5.48,0,0,1,129,51.67Z"/><path class="cls-1" d="M138.14,51.67a7.23,7.23,0,0,1-2.45-.43,6.47,6.47,0,0,1-2.18-1.32l1.42-1.7a7.13,7.13,0,0,0,1.54,1,4.09,4.09,0,0,0,1.72.36,2.1,2.1,0,0,0,1.16-.27.86.86,0,0,0,.41-.76v0a.94.94,0,0,0-.09-.41.87.87,0,0,0-.33-.33,3.44,3.44,0,0,0-.67-.31q-.43-.16-1.12-.33a13.5,13.5,0,0,1-1.5-.45,4.23,4.23,0,0,1-1.14-.62,2.48,2.48,0,0,1-.73-.91,3.17,3.17,0,0,1-.26-1.36v0a3.17,3.17,0,0,1,.28-1.35,3.08,3.08,0,0,1,.78-1,3.52,3.52,0,0,1,1.2-.67,4.83,4.83,0,0,1,1.54-.23,6.53,6.53,0,0,1,2.21.36,6.4,6.4,0,0,1,1.85,1l-1.25,1.81a8,8,0,0,0-1.44-.79,3.67,3.67,0,0,0-1.4-.29,1.69,1.69,0,0,0-1.05.27.83.83,0,0,0-.35.68v0a1,1,0,0,0,.1.46.92.92,0,0,0,.37.35,3.43,3.43,0,0,0,.73.3l1.17.33a11.2,11.2,0,0,1,1.48.49,4.11,4.11,0,0,1,1.09.66,2.49,2.49,0,0,1,.67.9,3,3,0,0,1,.23,1.23v0a3.38,3.38,0,0,1-.29,1.44,3,3,0,0,1-.82,1.06,3.7,3.7,0,0,1-1.26.66A5.48,5.48,0,0,1,138.14,51.67Z"/></svg>